<?xml version="1.0" encoding="UTF-8"?><svg id="a" xmlns="http://www.w3.org/2000/svg" viewBox="0 0 1094.34 1197"><defs><style>.b{fill:#409261;}.c{fill:#fff;}.d{fill:none;opacity:0;stroke:#c3c1b4;stroke-miterlimit:10;}.e{fill:#ebebe3;}.f{fill:#62c68a;}.g{fill:#c3c1b4;}</style></defs><rect width="1094.34" height="1197"/><rect class="d" x="5.66" y="2.54" width="1080" height="1185"/><path class="c" d="M337.55,472.27s8.41-28.38,18.92-34.69c0,0-10.51-40.47,2.45-90.57h0s5.61-11.56,9.11,0c0,0,16.47,38.89,27.68,43.8,0,0,119.47-116.15,301.84-2.1h0s15.77-9.46,31.01-36.79c0,0,8.41-20.5,11.56,.53,0,0,7.88,23.65-3.68,77.26,0,0,14.72,23.65,14.72,39.42,0,0,1.05,6.31,0,31.53,0,0-.88,14.19,2.28,28.91,0,0,3.85,17.52-12.61,26.98,0,0,4.2,28.38-11.91,30.48,0,0,12.26,23.82,2.45,29.08,0,0,5.26,52.9-39.94,68.67h0s-2.79,21.39,9.11,41.34c0,0,42.74,49.75-31.53,93.9,0,0-21.72,12.26-36.79,16.82,0,0-21.02,6.66-38.19,25.58,0,0-13.62,22.77-48.33,7.36,0,0-29.8,15.42-48.37-4.55,0,0-29.78-29.78-59.21-38.54,0,0-51.66-25.5-55.82-35.93-.22-.55-.43-1.1-.74-1.61-1.96-3.3-8.49-17.62,2.77-48.05,.94-2.55,1.53-5.21,1.8-7.91,.62-6.18,2.88-21.36,10.99-55.75h0c-.11-.03-27.14-5.63-34.26-36.1-.05-.2-.19-.36-.39-.41-1.44-.39-7.35-2.48-7.04-10.79,0,0,.35-16.6,5.16-20.25,.04-.03,.03-.08-.02-.09-1.47-.37-16.78-5.11-4.09-38.16,0,0-14.72-2.8-9.81-32.93,0,0,.33-31.66-1.89-46.35-.1-.65-.64-1.12-1.3-1.15-2.1-.07-6.45-2.21-5.92-18.9Z"/><path d="M363.48,346.31s-15.42,41.34-2.8,90.74c0,0-29.78,36.44-12.26,51.85,0,0,4.91,36.44,1.4,57.81,0,0-2.1,20.67,13.66,22.07,0,0-18.92,35.76,2.8,38.2,0,0-13.49,26.35-1.14,30.82,0,0,5.52,27.33,36.26,36.26,0,0-14.45,67.53-8.93,63.07,0,0-22.32,41.7,1.31,60.18,0,0,41.52,25.23,52.55,28.38,0,0,36.26,15.68,43.62,27.59,0,0,20.23,25.23,46.51,14.19,0,0,10.77-3.94,17.61,.26,0,0,19.18,7.36,33.11-6.31,0,0,31.44-28.08,44.93-28.91,0,0,59.39-21.81,74.63-58.86,0,0,6.83-18.66-6.04-38.1,0,0-15.77-20.76-13.93-53.87,0,0,47.74-12.35,40.03-64.91,0,0,9.81-7.36-1.4-24.88,0,0-2.22-12.96,5.37-8.76,0,0,10.74-5.61,4.44-28.38,0,0,18.22-3.5,12.61-37.14,0,0-1.05-16.47-.35-49.05,0,0-4.91-29.08-16.47-36.79,0,0,15.07-67.97,3.85-85.49,0,0-6.31,23.82-36.79,46.95,0,0-164.32-114.22-300.96,2.1,0,0-12.96,1.05-33.64-49.05Z"/><path class="f" d="M401.99,398.38s115.27-106.51,288.7,0c0,0-66.22,24.53-52.2,54.66,0,0,5.26,17.87-.7,21.02,0,0-8.06,14.72,6.66,20.32,0,0,11.21,2.8,7.71,12.61,0,0,.7,22.42,11.91,18.22,0,0,13.31,.35,10.86-18.57,0,0,12.26-3.5,14.01-12.26,0,0,27.33-7.92,42.04-55.99,0,0,11.91,10.09,12.26,50.74,0,0-1.97,43.19,0,50.8,0,0-8.76,25.23-9.81-3.15,0,0-4.55,.18-3.33,8.23,0,0,.78,8.86,3.5,20.5,0,0,3.85,21.37-16.12,8.76,0,0-4.03-1.75-4.91-6.83,0,0-5.43-6.66-2.45,7.18,0,0,3.56,7.71,12.61,7.88,0,0-1.4,10.51,4.38,18.92,0,0,8.06,14.54-12.09,9.11,0,0-26.28-16.12-35.39,35.04,0,0-.53,11.74,.35,16.12,0,0,.35,18.04-6.83,17.87,0,0-8.51-1.53-6.57-17.85,.05-.42,.12-.85,.19-1.28,.66-3.95,3.9-27.78-13.76-31.15,0,0-23.54-1.93-15.91,41.15,.37,2.11,.25,4.27,.84,6.33,1.93,6.72,6.38,22.68,5.97,25.57,0,0,3.5,26.28-10.69,25.23,0,0-10.51,1.75-6.66-25.05,0,0,5.08-26.63-17.87-35.74,0,0-15.59-2.1-10.86,26.8,0,0,6.83,35.91-20.85,39.07,0,0-13.31,2.1-6.48-10.34,0,0,7.73-28.25-7.6-32.36,0,0-17.26-1.49-24.99,29.91,0,0-2.33,9.05-1.32,19.49,.53,5.45-.57,10.99-3.38,15.7-3.16,5.3-8.17,9.35-15.21,2.71-5.52-5.2-8.01-12.86-6.99-20.37,.69-5.09,1.86-11.63,3.77-18.05,0,0,7.36-26.28-13.66-34.51,0,0-19.27-3.33-23.3,20.67,0,0-.74,2.63-1.07,6.5s-1.36,7.4-3.25,10.64c-2.07,3.55-4.79,5.99-6.92,.05-1.24-3.46-1.31-7.23-.37-10.78,2.42-9.13,6.9-30.68-3.11-35.48,0,0-23.65-12.44-34.16,25.58,0,0-11.21,37.84-23.47,38.89,0,0-17.52,7.71-3.5-37.31,0,0,13.66-51.15-1.75-73.4,0,0-12.44-11.56-27.85,1.58,0,0-13.49,6.31-8.41-10.86,0,0,9.64-20.67,14.89-23.47,0,0,3.15-3.85-.18-9.28,0,0-2.63-1.93-1.93,1.4,0,0-3.33,11.74-9.99,11.04,0,0-10.86,2.45-2.1-21.72,0,0,13.14-27.15-.53-42.92,0,0-2.28-1.93-.35,2.8,0,0,3.15,6.66,2.8,8.58,0,0,1.93,29.93-10.51,8.84,0,0-1.23,2.2-1.93-66.82,0,0,7.88-14.36,7.71-17.69,0,0-1.05-5.96-3.5,0l-5.78,11.74s-1.58,4.73-2.8-.88c0,0-2.8-11.21,0-15.07,0,0,5.96-13.66,12.79-23.65,0,0,7.18,39.94,38.19,47.47,0,0-.53,9.64,7.36,13.49,0,0,2.1,.7,0,3.68,0,0-13.58,32.5,5.34,35.39,0,0,27.59,4.2,16.82-32.85,0,0-.18-2.72,1.93,.88,0,0,16.91,20.93,24.79-7.53,0,0,.09-25.4,4.03-31.71,0,0,7.88-35.21-12.35-49.93,0,0-3.94-3.94-17.34-9.2,0,0-27.07-10.23-29.34-15.07Z"/><path class="e" d="M450.8,503.93s.13-17.08,1.84-24.44c0,0,5.52-19.71,3.94-29.5,0,0,.53-16.62-20.23-26.61,0,0-62.85-21.42-70.77-64.12,0,0-29.43,146.8,71.82,129.28,0,0,4.2-1.05,0,3.28,0,0-15.2,2.8-33.46-.48,0,0,.48,9.68,7.05,11.39,0,0,4.73,3.28-.79,12.09,0,0-9.23,21.59,5.49,24.35,0,0,22.63-.96,10.02-27.5,0,0-4.73-16.95,6.7-4.99,0,0,13.27,17.87,18.39-2.1"/><path class="e" d="M734.51,356.47s-16.64,39.59-63.42,58.51c0,0-38.54,9.91-28.73,40.74,0,0,6.5,8.83-.35,20.57,0,0-9.11,9.99,2.8,12.44,0,0,9.46,3.5,10.16,13.31,0,0-1.23,18.74,9.11,19.62,0,0,8.23,2.98,5.43-8.23,0,0-1.93-7.18,.18-7.88,0,0,11.91-5.78,12.79-8.41,0,0-13.14,3.15-22.6-1.05,0,0-4.91-4.03,1.75-2.63,0,0,71.47,25.23,72.88-136.99Z"/><path d="M447.91,535.86s9.46-2.63,15.24-17.08c0,0,17.34-45.2,56.5-28.12,0,0,20.76,9.72,14.45,32.32,0,0-2.36,9.2-4.99,28.38,0,0-2.07,6.2-3.82,18.06-.93,6.28-3.35,12.27-7.18,17.34-6.53,8.66-19.32,19.92-43.92,27.4,0,0-46.51,11.56-47.56-23.91,0,0-8.67-29.69,21.28-54.39Z"/><path class="e" d="M465.68,548.67c2.75-.92,8.92-4.39,14.7-17.54,0,0,6.81-36.23,42.65-12.71,1.9,1.25,2.93,3.47,2.65,5.73-.52,4.1-1.09,11.42-.24,19.99,0,0-1.18,15.9-7.09,33.9,0,0-11.13,33.64-61.47,34.16,0,0-19.33,2.63-17.63-19.84,0,0-1.38-18.17,23.15-41.65,.94-.9,2.05-1.62,3.29-2.03Z"/><path d="M527.8,607s18.03-52.04,32.37-2.53c.14,.47,.24,.96,.31,1.45,.53,3.58,3.27,20.18,9.94,27.14,1.22,1.28,2.15,2.81,2.87,4.42,3.17,7.1,9.72,24.15,2.86,30.46,0,0-6.48,9.4-16.01-2.03-.67-.8-1.21-1.7-1.66-2.63-.9-1.85-3.09-5.58-7.33-8.59-1.77-1.26-4.15-1.4-6.01-.27-2.29,1.38-5.71,4.28-10.46,10.34-1.22,1.55-2.82,2.74-4.67,3.42-6.06,2.24-18.98,5.3-17.63-10.04,0,0,2.26-11.03,11.73-25.03,1.03-1.53,1.59-3.33,1.59-5.18,0-6.15-.99-13.9,2.1-20.94Z"/><path class="e" d="M535.91,615.6c4.52-5.81,13.39-12.68,22.9,4.87,0,0,6.48,16.14,11.62,21.85,1.18,1.3,2.04,2.85,2.64,4.5,1.98,5.42,5.1,16.13,.45,19.64,0,0-7.36,5.26-10.25-2.36-2.89-7.62-7.09-13.4-13.14-14.72,0,0-7.85-1.96-13.12,8.56-.46,.93-1.08,1.78-1.8,2.52-2.86,2.95-8.08,7.76-14.52,5.21,0,0-9.2-2.1,1.05-20.23,0,0,8.3-14.53,10.52-22.38,.76-2.69,1.92-5.25,3.63-7.46Z"/><path class="e" d="M375.56,634.31s6.48,26.8,26.45,29.08c0,0,6.48-47.47-26.45-29.08Z"/><path class="e" d="M717.34,616.97s6.83,40.99-33.81,55.01c0,0-.52-17.58-1.01-24.93-.13-1.98,.08-3.96,.61-5.87,2.8-10.05,12.92-38.79,34.21-24.21Z"/><path class="e" d="M641.31,675.39h18.66s-.22-5.38-.05-11.17c.02-.83,.11-1.66,.26-2.48,.67-3.56,2.45-15.48-2.15-22.25-2.37-3.49-7.02-4.44-10.59-2.2-5.27,3.3-11.72,12.49-6.12,38.1Z"/><path class="e" d="M602.16,704.82s10.77-1.58,14.45,4.47c0,0,13.82-14.32-6.01-34.44-1.64-1.66-4.1-2.37-6.32-1.65-3.67,1.19-6.29,2.19-2.12,20.33,0,0,.85,5.85,0,11.3Z"/><path d="M663.04,620.47s-8.23,2.45,0,2.8c0,0,24.7-1.58,31.53-26.1,0,0,0-10.51-3.68,0,0,0-4.55,17.87-27.85,23.3Z"/><path d="M499.29,661.59s4.34-6.31,3.42,1.05c0,0-5.65,14.32,13.14,17.61,0,0,11.46,2.69-.03,3.55,0,0-23.16-2.69-16.52-22.2Z"/><path class="g" d="M542.86,713.93s12-14.01,23.04-5.08c0,0,1.84-14.28-4.73-14.36,0,0-10.95-.79-18.31,19.45Z"/><path class="g" d="M481.29,701.8s10.77-2.1,12.88,8.41c0,0,9.93-8.58,15.35-4.29,0,0,1.73-12.53-10.88-16.21,0,0-12.11-2.44-17.34,12.09Z"/><path class="g" d="M449.49,699.88s8.15-6.49,12.61-1.24c0,0,5.39-19.71-10.77-20.63l-1.84,21.86Z"/><path class="e" d="M547.24,745.45h16.29s3.85-3.41,0-11.99c0,0-2.28-2.45-.7-10.86,0,0,2.75-7.29-2.98-7.01,0,0-16.29,.6-12.61,29.86Z"/><path class="e" d="M623.53,741l10.77-1.93s-1.04,19.69-5.87,20.41c0,0-5.43-.18-4.91-18.48Z"/><path class="e" d="M599.88,745.45l14.8-2.62s.74,24.23-6.57,26.72c0,0-7.88,1.2-8.23-24.1Z"/><path class="e" d="M577.64,748.79l13.05-.96s3.85,23.47-5.96,24.7c0,0-8.32,1.84-7.09-23.74Z"/><path class="e" d="M548.38,750.11h18.31s3.5,24.26-7.36,25.49c0,0-11.3,1.4-10.95-25.49Z"/><path class="e" d="M523.07,767.1s13.49-1.66,15.77-9.64c0,0-1.49,30.74-15.77,9.64Z"/><path class="e" d="M496.79,742.84l6.48,.7s-.09,15.07,9.55,19.97c0,0-1.93,6.74-8.41,7.8,0,0-6.83,3.5-7.62-28.47Z"/><path class="e" d="M471.83,738.32l18.92,3.42s-.48,23.8-7.23,26.8c0,0-11.04,3.15-11.69-30.22Z"/><path class="e" d="M453.87,733.81l12.44,3.15s2.63,26.45-4.73,27.15c0,0-7.88,3.85-7.71-30.31Z"/><path class="e" d="M398.16,745.45s17.52,10.78,29.08-28.46l.57,43.27s3.94,11.43,9.72,13.01c0,0,14.98,11.3,15.64,19.05,0,0,3.15,3.15,3.81-1.05,0,0-5.65-26.54-4.73-31.66,0,0,5.12,17.74,15.9,5.39,0,0,7.09,23.66,25.09,10.61,0,0,7.88,14.22,22.73,2.53,0,0,10.64,16.69,29.69,1.05,0,0,13.27,13.8,27.07-2.1,0,0,10.12,9.27,22.99-1.48,0,0,14.32,7.55,24.31-6.98,0,0,8.15,3.6,17.08-.87,0,0-6.7,25.88-3.94,27.85,0,0,3.28,3.42,7.09-5.78,0,0,13.66-19.18,23.26-24.96,0,0-3.81-72.57,.74-74.85h11.91s-.7,28.91,12.96,44.67c0,0,20.32,27.68,0,49.58,0,0-21.85,25.58-60.24,38.01,0,0-22.97,7.18-42.6,27.85,0,0-11.04,15.77-26.45,8.58,0,0-18.74-7.36-23.12-1.23,0,0-13.49,6.83-24.7,.35,0,0-4.55-2.28-6.13-4.55,0,0-12.79-13.66-28.73-23.12,0,0-1.23-1.23-24.35-12.79,0,0-28.55-12.79-56.06-31.71,0,0-7.45-5.69,1.4-40.22Z"/><path class="g" d="M396.56,752.18s21.29,6.23,30.94-15.97l-.25-19.22s-6.84,31.01-29.08,28.46l-1.6,6.73Z"/><path class="g" d="M453.38,772.13c1.22-.12,2.7-.36,4.34-.86,2.02-.62,3.65-1.43,4.87-2.15-1.02-.02-2.15-.19-3.32-.64-5.2-2-6.79-7.94-7.02-8.87-.04,1.37-.03,2.83,.05,4.38,.16,3.03,.57,5.76,1.08,8.14Z"/><path class="g" d="M664.26,690.02h11.91s.18,6.04,.47,9.69l-14.33,.91s0-8.59,1.94-10.6Z"/><path class="g" d="M601.77,705.02s5.06-1.25,9.74,.51c0,0-.54-20.95,1.76-19.76,0,0,5.7,2.5,6.99,3.97,0,0-3.06-12.02-12.58-16.62,0,0-9.66-3.28-7.64,10.93,0,0,3.44,13.73,1.73,20.96Z"/><path class="e" d="M601.77,738.19l11.56-1.31s0-22.99-8.8-23.65c0,0-8.28-1.31-2.76,24.96Z"/><path class="g" d="M600.25,729.15l9.02-12.53c-.46-.82-1.39-2.18-3.05-2.95-.52-.24-1.14-.52-1.93-.45-1.42,.13-2.36,1.31-2.81,1.88-1.62,2.05-2.14,7.34-1.24,14.05Z"/><path class="e" d="M577.2,742.84l10.64-.57s6.46,.39,3.59-9.85c0,0-8.15,6.57-13.92,6.96,0,0-.51,1.99-.31,3.46Z"/><path class="e" d="M496.2,737.41l7.49,.92s.99-12.42,5.12-20.36c0,0,2.39-7.05-6.31-1.12,0,0-1.31,.65-2.74,3.33-1.53,2.86-3.2,8.04-3.57,17.23Z"/><path class="g" d="M503.78,737.36l-4.41-16.4c.39-.93,1.15-2.41,2.64-3.76,2.45-2.23,5.24-2.64,6.27-2.73,.37-.09,.78-.15,.83,.09,.48,2.46-.07,2.68-1.77,6.74,0,0-4.01,14.48-3.56,16.07Z"/><path class="e" d="M472.18,732.85s11.22,3.44,17.69,2.72c0,0,3.24-30.48-9.28-27.77,0,0-1.11,.21-.79,16.12,0,0-10.25,8.93-7.62,8.93Z"/><path class="g" d="M479.75,720.72l6.87-10.77s-1.96-3.63-6.03-2.15c0,0-1.17,.6-.84,12.92Z"/><path class="e" d="M449.49,725.05s2.1,5.78,18.92,7.36c0,0-12.51-5.34-8.09-22.2,0,0,4.42-10.04-5.22-2.76,0,0-4.55,2.37-5.61,17.61Z"/><path class="g" d="M455.97,706.88l3.62,6.95c.34-.85,3.1-7.97,1.26-9.14-.29-.18-1.42-.69-4.89,2.19Z"/><path d="M561.43,536.21s-11.56-75.68,53.61-40.99c0,0,72.89,40.75,67.45,99.82,0,0,0,15.29-23.11,11.66,0,0-25.6-11.34-53.1-11.66,0,0-38.72-2.24-44.85-58.83Z"/><path class="e" d="M614.61,592.15s16.47-2.1,32.58,6.31c0,0,39.94,15.77,31.53-14.36,0,0-3.83-39.98-62.36-70.07-5.58-2.87-8.93-3.24-8.93-3.24,0,0-21.42-6.47-27.75,11.73-.5,1.44-1.06,2.85-1.69,4.24-.39,.86-.84,1.86-1.32,2.9-3.66,8.06-5.39,16.89-4.86,25.73,.14,2.42,.38,5.11,.76,8.05,0,0,5.26,25.58,42.04,28.73Z"/><path class="g" d="M572.32,561.38s31.97-80.81,103.72,12.49c-2.63-6.3-6.38-15.63-14.68-25.01-1.4-1.58-2.42-3.51-7.65-8.39-20.13-18.8-30.95-27.97-42.53-30.71-3.67-.87-9.22-1.69-16.42-.82-4.31,1.47-8.99,3.88-13.13,7.87-16.47,15.85-9.83,42.61-9.31,44.58Z"/><path class="g" d="M439.69,600.54s2.8-18.96,30.13-36.48c0,0,11.57-5.21,12.62-12.68,0,0,16.58-37.1,42.62-13.09l1.87-17.33s-10.51-12.55-28.91-11.04c0,0-14.03,1.81-21.12,27.97,0,0-5.5,6.68-12.87,11.09,0,0-28.72,20.75-24.35,51.54Z"/><path class="b" d="M356.33,454.13c.99,2.59,2.67,6.08,5.57,9.59,4.9,5.95,10.66,8.81,13.82,10.09-3.5-5.02-5.65-9.44-6.97-12.58-3.53-8.38-5.74-18.48-5.74-18.48h0s-2.62,4.45-6.69,11.38Z"/><path class="b" d="M730.98,438.39c-1.65,5.29-3.81,11.12-6.67,17.29-1.98,4.27-4.04,8.17-6.08,11.69,0,0,13.49-10.87,18.47-19.54,0,0-1.72-5.48-5.72-9.44Z"/><path class="b" d="M741.66,543.88s-3.81-1.02-4.95-7.5c0,0,.26,3.33-1.49-13.49,0,0,.35-8.58-3.68,0,.05,4.87,.11,9.75,.16,14.62,.58-.25,1.16-.49,1.74-.74,.19,3.33,.38,6.66,.57,9.99,.21,1.89,1.19,3.36,2.37,3.56,1.31,.22,2.45-1.2,3.34-2.31,1.26-1.58,1.74-3.2,1.94-4.13Z"/><path class="b" d="M733.39,564.56s-10.09,12.11-18.5-2.25c0,0-2.28-23.12-7.36-1.05,0,0-.07,4.56,2.1,4.96,.12-.17,.25-.25,.36-.28,.66-.22,1.7,.72,2.62,2.31,.36,1.01,.92,2.2,1.79,3.43,2.26,3.19,5.28,4.64,6.83,5.24,2.93,1.87,6.5,2.24,9.19,.75,3.89-2.14,5.64-7.96,2.97-13.1Z"/><path class="b" d="M666.35,664.75c1.24,1.68,2.32,2.12,3.14,2.16,5.25,.22,9.52-15.95,10.06-18.05,0,1.61,.03,3.25,.09,4.93,.1,3.01,.27,5.91,.5,8.69,.32,1.7,2.04,11.41-3.39,15.86-.47,.38-1,.74-1.62,1.05-2.66,.73-4.33,.12-5.03-.21-3.7-1.74-5.65-7.67-3.74-14.42Z"/><path class="b" d="M625.74,711.92s16.8,11.91,12.07-11.3c0,0-24.9-61.8,8.48-69.83-2.62,2.49-6.48,6.82-8.82,13.17-2.66,7.21-2.02,13.36-.91,23.07,.65,5.69,1.99,13.67,5.01,23.02,1.26,4.58,2.41,10.43,2.7,17.27,.21,5.07-.09,9.59-.6,13.4-2.3,5.5-8.33,8.03-13,6.3-5.29-1.95-8.21-9.11-4.94-15.1Z"/><path class="b" d="M570.79,721.18s11.66,5.45,18.23-18.46c0,0,.22-35.62,13.91-34.5-1.4,1.71-3.03,4.13-4.21,7.28-2.95,7.88-1.11,15.01-.24,17.75,.42,1.43,5.11,18.64-6.02,31.29-5.38,6.11-12.01,8.39-15.31,9.27,0,0-15.74,4.69-6.36-12.63Z"/><path class="b" d="M512.28,729.76s7.45,50.3,24.1,2.65c1.9,14.16-1.08,25.5-7.6,28.18-1.13,.47-2.58,.76-4.45,.56,0,0-23.36,1.34-12.05-31.4Z"/><path class="b" d="M476.97,710.21s-3.89,8.81-11.35,7.36c.36,5.23,1.7,9.39,3.58,9.65,2.83,.39,6.02-8.19,6.19-8.64,1.24-3.4,1.53-6.4,1.59-8.37Z"/><path class="b" d="M396.84,725.87s13.5,12.8,23.48-21.07c0,0,7.92-36.93,30.76-30.08,0,0-17.19,3.91-22.93,29.82-1.2,4.43-9.27,33.26-22.02,36.19-1.19,.27-4.34,1-6.8-.68-3.24-2.19-4.15-7.72-2.5-14.18Z"/><path class="b" d="M348.54,473.19s.83,2.36,2.67,2.89c0,0,4.68-.26,7.57-5.39-.54,1.18-1.17,2.54-1.87,4.02-2.43,5.12-2.78,5.44-2.98,5.91-.1,.22-.14,.4-.15,.45-.19,.67-1.6,4.27-2.7,4.12-.11-.01-.28-.08-.46-.31-.34-.52-.66-1.08-.95-1.7-1.83-3.85-1.54-7.68-1.12-10Z"/><path class="b" d="M358.47,559.79s4.89-4.6,4.99-21.97c1.31,2.23,3.69,7,3.78,13.46,.07,4.85-1.18,8.67-2.11,10.91-.48,1.05-1.08,1.34-1.35,1.44-1.47,.54-3.79-.88-5.31-3.84Z"/><path class="b" d="M362.5,585.72s4.13,11.1,10.09-4.84c0,0,9.64-35.91,11.91,1.58,0,0,.18,2.98-2.1,11.39,0,0-7.96,27.64-.57,32.47-.91,1.04-7.67,8.6-14.61,7.16-.83-.17-2.35-.51-3.46-1.77-.57-.65-2.25-2.94,.22-10.84,1.14-3.67,3.39-9.21,8.08-15.28,.72-1.4,1.77-3.14,3.33-4.92,1.21-1.39,2.43-2.46,3.48-3.27,.39-.61,1.33-2.24,1.28-4.49-.06-2.71-1.52-4.51-1.95-5.01-.09-.07-.51-.38-.9-.26-.48,.15-.84,.95-.53,1.88-.49,5.2-3.37,9.33-7.35,10.6-.51,.16-3.76,1.19-6.16-.46-3.07-2.11-3.88-7.95-.75-13.93Z"/><path d="M371.88,415.24s-1.86,0,0,1.4c0,0,3.5,1.42,5.52,.44,0,0,1.9-.7-.44-.84,0,0-4.34-.6-5.08-1Z"/><path d="M370.92,423.75s3.25,6.11,16,4.24c0,0-3.42-.69-4.04-2.1,0,0,2.17-2.73,3.84-2.69l-14.19-.49s-3.03-.55-1.61,1.05Z"/><path d="M377.82,432.59s-2.69-.62-.3,1.12c0,0,8.24,5.03,18.82,2.36,0,0,1.94-.92-.43-.72,0,0-14.88-.74-18.1-2.76Z"/><path d="M386.1,452.62s-5.36-.99-1.51,1.77c0,0,12.76,9.49,29.75,5.26,0,0,3.11-1.46-.69-1.15,0,0-19.8-.51-27.55-5.89Z"/><path d="M376.53,438.5s6.02,6.77,22.57,3.55c0,0,3.81-2.1,.33,1.38,0,0-1.77,1.12-12.51,.79,0,0,7.92,8.21,24.8,6.83,0,0,5.19,.13,0,1.97,0,0-26.29,4.27-35.19-14.52Z"/><path d="M390.23,465.63l15.57,15.37s20.62,1.86,35.34-17.08c0,0-9.33,7.82-21.35,9.89,0,0,6.99-8.09,4.66-5.88-.3,.29-9.66,2.43-14.06,1.38,0,0,2.82-3.42,5.91-4.8,0,0-22.27,2.3-26.08,1.12Z"/><path d="M418.83,483.57s-2.36,.39,.22,1.01c0,0,7.8,1.49,10.51-4.25,0,0,.66-1.4-.83-.44-1.49,.96-2.01,3.02-9.9,3.68Z"/><path d="M716.67,423.85s-2.17,2.04,.46,.79c0,0,2.36-1.25,4.27-1.12,0,0,3.09-1.05-.66-1.12,0,0-3.26,.29-4.07,1.45Z"/><path d="M712.59,430.42s-1.45,.59,0,.92c1.45,.33,6.44-.59,8.01-2.96,0,0,1.54-1.91-1.4-.26,0,0-4.32,2.5-6.62,2.3Z"/><path d="M708.91,437.32s-1.84,.11,0,1.08c1.84,.96,9.03-.16,10.29-2.19,0,0,1.46-2.96-1.56-.72,0,0-4.99,2.43-8.74,1.84Z"/><path d="M702.34,443.03s-3.88-1.97-.99,1.31c0,0,1.05,.46,2.04,.53,0,0-4.47,2.04-6.57,3.22,0,0,5.52-.35,16.42-3.61,0,0,4.17-3.02-1.3-1.71,0,0-4.74,1.91-9.61,.26Z"/><path d="M681.85,454.66s-2.23,.2,0,.79c0,0,12.28,1.31,19.38-1.77,0,0,6.5-2.89,12.09-4.01,0,0,3.05-.53-1.36-.79,0,0-23.86,5.85-30.1,5.78Z"/><path d="M710.36,456.3s2.23-2.3,1.64,.46c0,0-1.77,18.46-38.76,15.11l7.95-1.31-6.37-4.93,8.74-.39-1.71-2.56s27.69,.86,28.51-6.37Z"/><path d="M663.06,476.86s-4.47-.33,0,1.77c0,0,25.36,6.83,29.89-2.36,0,0,1.77-1.45-1.91-.46,0,0-19.97,3.09-27.99,1.05Z"/><path d="M667.2,482.19s-3.48-2.56-1.38,1.12c0,0,7.62,7.36,12.28,1.91,0,0,1.05-.66-1.25-1.31,0,0-8.93,.33-9.66-1.71Z"/></svg>