<?xml version="1.0" encoding="UTF-8"?><svg id="a" xmlns="http://www.w3.org/2000/svg" viewBox="0 0 2094.17 1769.83"><defs><style>.b{fill:#409261;}.c{fill:#fff;}.d{fill:#ebebe3;}.e{fill:#62c68a;}.f{fill:none;opacity:0;stroke:#c3c1b4;stroke-miterlimit:10;stroke-width:1.49px;}.g{fill:#c3c1b4;}</style></defs><rect class="b" y="268.86" width="2094.17" height="1232.11"/><g><rect class="f" x="241.26" y=".75" width="1611.65" height="1768.34"/><path class="c" d="M736.52,701.71s12.55-42.35,28.23-51.76c0,0-15.69-60.39,3.66-135.15h0s8.37-17.25,13.59,0c0,0,24.57,58.04,41.3,65.35,0,0,178.29-173.32,450.42-3.14h0s23.53-14.12,46.27-54.9c0,0,12.55-30.59,17.25,.78,0,0,11.76,35.29-5.49,115.29,0,0,21.96,35.29,21.96,58.82,0,0,1.57,9.41,0,47.06,0,0-1.31,21.18,3.4,43.13,0,0,5.75,26.14-18.82,40.26,0,0,6.27,42.35-17.78,45.49,0,0,18.3,35.55,3.66,43.4,0,0,7.84,78.95-59.6,102.48h0s-4.17,31.91,13.59,61.7c0,0,63.79,74.24-47.06,140.12,0,0-32.42,18.3-54.9,25.1,0,0-31.37,9.93-56.99,38.17,0,0-20.33,33.98-72.12,10.98,0,0-44.47,23-72.18-6.8,0,0-44.44-44.44-88.36-57.51,0,0-77.09-38.05-83.3-53.62-.33-.82-.64-1.65-1.1-2.41-2.92-4.92-12.67-26.3,4.13-71.7,1.41-3.8,2.29-7.77,2.69-11.8,.92-9.22,4.29-31.88,16.41-83.19h0c-.16-.04-40.5-8.4-51.12-53.87-.07-.3-.29-.54-.59-.62-2.15-.58-10.97-3.7-10.51-16.1,0,0,.52-24.78,7.7-30.22,.06-.04,.04-.12-.03-.14-2.19-.56-25.04-7.63-6.11-56.95,0,0-21.96-4.18-14.64-49.15,0,0,.49-47.25-2.82-69.16-.15-.97-.96-1.68-1.94-1.71-3.13-.11-9.62-3.3-8.83-28.2Z"/><path d="M775.21,513.75s-23,61.69-4.18,135.42c0,0-44.44,54.38-18.3,77.38,0,0,7.32,54.38,2.09,86.27,0,0-3.14,30.85,20.39,32.94,0,0-28.23,53.37,4.18,57.01,0,0-20.13,39.32-1.7,45.99,0,0,8.23,40.78,54.11,54.11,0,0-21.57,100.78-13.33,94.11,0,0-33.31,62.23,1.96,89.8,0,0,61.96,37.64,78.43,42.35,0,0,54.11,23.4,65.09,41.17,0,0,30.19,37.64,69.41,21.17,0,0,16.08-5.88,26.27,.39,0,0,28.63,10.98,49.41-9.41,0,0,46.91-41.9,67.05-43.13,0,0,88.62-32.55,111.36-87.84,0,0,10.2-27.84-9.02-56.86,0,0-23.53-30.98-20.78-80.39,0,0,71.24-18.43,59.73-96.86,0,0,14.64-10.98-2.09-37.12,0,0-3.31-19.35,8.02-13.07,0,0,16.03-8.37,6.62-42.35,0,0,27.19-5.23,18.82-55.42,0,0-1.57-24.57-.52-73.2,0,0-7.32-43.4-24.57-54.9,0,0,22.48-101.43,5.75-127.57,0,0-9.41,35.55-54.9,70.06,0,0-245.21-170.45-449.12,3.14,0,0-19.35,1.57-50.19-73.2Z"/><path class="e" d="M832.69,591.46s172.01-158.94,430.82,0c0,0-98.82,36.6-77.9,81.56,0,0,7.84,26.66-1.05,31.37,0,0-12.03,21.96,9.93,30.32,0,0,16.73,4.18,11.5,18.82,0,0,1.05,33.46,17.78,27.19,0,0,19.87,.52,16.21-27.71,0,0,18.3-5.23,20.91-18.3,0,0,40.78-11.82,62.74-83.55,0,0,17.78,15.06,18.3,75.71,0,0-2.94,64.45,0,75.81,0,0-13.07,37.64-14.64-4.71,0,0-6.8,.26-4.97,12.29,0,0,1.17,13.23,5.23,30.59,0,0,5.75,31.89-24.05,13.07,0,0-6.01-2.61-7.32-10.2,0,0-8.1-9.93-3.66,10.72,0,0,5.31,11.5,18.82,11.76,0,0-2.09,15.69,6.54,28.23,0,0,12.03,21.7-18.04,13.59,0,0-39.21-24.05-52.81,52.28,0,0-.78,17.52,.52,24.05,0,0,.52,26.93-10.2,26.66,0,0-12.7-2.29-9.81-26.63,.08-.63,.18-1.27,.28-1.9,.99-5.89,5.82-41.46-20.54-46.49,0,0-35.12-2.89-23.75,61.41,.56,3.14,.37,6.38,1.25,9.45,2.88,10.03,9.52,33.85,8.9,38.16,0,0,5.23,39.21-15.95,37.64,0,0-15.69,2.61-9.93-37.38,0,0,7.58-39.74-26.66-53.33,0,0-23.27-3.14-16.21,40,0,0,10.2,53.59-31.11,58.3,0,0-19.87,3.14-9.67-15.42,0,0,11.54-42.15-11.33-48.3,0,0-25.75-2.22-37.29,44.64,0,0-3.47,13.51-1.97,29.08,.79,8.14-.86,16.4-5.04,23.43-4.71,7.91-12.19,13.95-22.7,4.05-8.24-7.76-11.95-19.19-10.43-30.4,1.03-7.6,2.77-17.36,5.63-26.94,0,0,10.98-39.21-20.39-51.5,0,0-28.76-4.97-34.77,30.85,0,0-1.1,3.92-1.59,9.69s-2.03,11.04-4.85,15.88c-3.08,5.29-7.14,8.93-10.32,.07-1.85-5.16-1.96-10.79-.55-16.09,3.61-13.62,10.3-45.79-4.64-52.95,0,0-35.29-18.56-50.98,38.17,0,0-16.73,56.47-35.03,58.04,0,0-26.14,11.5-5.23-55.68,0,0,20.39-76.33-2.61-109.53,0,0-18.56-17.25-41.57,2.35,0,0-20.13,9.41-12.55-16.21,0,0,14.38-30.85,22.22-35.03,0,0,4.71-5.75-.26-13.86,0,0-3.92-2.88-2.88,2.09,0,0-4.97,17.52-14.9,16.47,0,0-16.21,3.66-3.14-32.42,0,0,19.61-40.52-.78-64.05,0,0-3.4-2.88-.52,4.18,0,0,4.71,9.93,4.18,12.81,0,0,2.88,44.67-15.69,13.18,0,0-1.83,3.29-2.88-99.71,0,0,11.76-21.44,11.5-26.4,0,0-1.57-8.89-5.23,0l-8.63,17.52s-2.35,7.06-4.18-1.31c0,0-4.18-16.73,0-22.48,0,0,8.89-20.39,19.08-35.29,0,0,10.72,59.6,56.99,70.84,0,0-.78,14.38,10.98,20.13,0,0,3.14,1.05,0,5.49,0,0-20.26,48.49,7.97,52.81,0,0,41.17,6.27,25.1-49.02,0,0-.26-4.05,2.88,1.31,0,0,25.23,31.24,36.99-11.24,0,0,.13-37.91,6.01-47.32,0,0,11.76-52.55-18.43-74.5,0,0-5.88-5.88-25.88-13.72,0,0-40.4-15.26-43.79-22.48Z"/><path class="d" d="M905.53,748.96s.2-25.49,2.74-36.47c0,0,8.23-29.41,5.88-44.02,0,0,.78-24.8-30.19-39.7,0,0-93.78-31.96-105.61-95.68,0,0-43.92,219.07,107.18,192.93,0,0,6.27-1.57,0,4.9,0,0-22.68,4.18-49.93-.72,0,0,.72,14.44,10.52,16.99,0,0,7.06,4.9-1.18,18.04,0,0-13.77,32.22,8.19,36.34,0,0,33.77-1.44,14.95-41.04,0,0-7.06-25.29,10-7.45,0,0,19.8,26.66,27.45-3.14"/><path class="d" d="M1328.9,528.91s-24.83,59.08-94.63,87.31c0,0-57.51,14.79-42.87,60.8,0,0,9.69,13.18-.52,30.69,0,0-13.59,14.9,4.18,18.56,0,0,14.12,5.23,15.16,19.87,0,0-1.83,27.97,13.59,29.28,0,0,12.29,4.44,8.1-12.29,0,0-2.88-10.72,.26-11.76,0,0,17.78-8.63,19.08-12.55,0,0-19.61,4.71-33.72-1.57,0,0-7.32-6.01,2.61-3.92,0,0,106.66,37.64,108.75-204.43Z"/><path d="M901.22,796.6s14.12-3.92,22.74-25.49c0,0,25.88-67.45,84.31-41.96,0,0,30.98,14.51,21.57,48.23,0,0-3.53,13.72-7.45,42.35,0,0-3.09,9.26-5.7,26.95-1.38,9.38-5,18.31-10.71,25.87-9.75,12.92-28.83,29.73-65.54,40.89,0,0-69.41,17.25-70.98-35.68,0,0-12.94-44.31,31.76-81.17Z"/><path class="d" d="M927.73,815.72c4.11-1.37,13.31-6.55,21.94-26.18,0,0,10.16-54.07,63.64-18.97,2.84,1.86,4.38,5.17,3.95,8.54-.77,6.12-1.63,17.04-.36,29.84,0,0-1.76,23.72-10.59,50.58,0,0-16.6,50.19-91.73,50.98,0,0-28.85,3.92-26.3-29.61,0,0-2.06-27.11,34.54-62.16,1.41-1.35,3.06-2.42,4.91-3.03Z"/><path d="M1020.42,902.76s26.91-77.65,48.3-3.77c.2,.71,.36,1.44,.47,2.16,.78,5.34,4.89,30.11,14.84,40.51,1.83,1.91,3.21,4.19,4.28,6.6,4.73,10.6,14.5,36.04,4.27,45.46,0,0-9.67,14.02-23.89-3.03-.99-1.19-1.8-2.53-2.48-3.93-1.34-2.77-4.62-8.33-10.93-12.82-2.64-1.88-6.19-2.09-8.97-.41-3.41,2.06-8.52,6.39-15.6,15.43-1.81,2.31-4.21,4.08-6.97,5.1-9.05,3.35-28.32,7.9-26.31-14.98,0,0,3.37-16.46,17.51-37.34,1.54-2.28,2.37-4.97,2.37-7.73-.01-9.18-1.48-20.74,3.13-31.24Z"/><path class="d" d="M1032.52,915.6c6.74-8.66,19.98-18.92,34.17,7.27,0,0,9.66,24.08,17.34,32.6,1.76,1.95,3.05,4.26,3.94,6.72,2.95,8.1,7.6,24.07,.67,29.3,0,0-10.98,7.84-15.29-3.53-4.31-11.37-10.59-20-19.61-21.96,0,0-11.71-2.93-19.57,12.78-.69,1.38-1.61,2.65-2.68,3.76-4.27,4.4-12.05,11.59-21.66,7.77,0,0-13.72-3.14,1.57-30.19,0,0,12.39-21.69,15.7-33.39,1.13-4.01,2.86-7.84,5.42-11.13Z"/><path class="d" d="M793.25,943.52s9.67,40,39.47,43.4c0,0,9.67-70.84-39.47-43.4Z"/><path class="d" d="M1303.28,917.64s10.2,61.17-50.45,82.09c0,0-.78-26.24-1.5-37.2-.19-2.96,.12-5.9,.91-8.76,4.17-15,19.28-57.89,51.05-36.13Z"/><path class="d" d="M1189.82,1004.82h27.84s-.33-8.02-.08-16.66c.04-1.24,.16-2.48,.39-3.7,1-5.31,3.65-23.11-3.21-33.2-3.54-5.2-10.47-6.62-15.8-3.29-7.87,4.92-17.49,18.63-9.14,56.85Z"/><path class="d" d="M1131.39,1048.74s16.08-2.35,21.57,6.67c0,0,20.63-21.37-8.97-51.4-2.45-2.48-6.11-3.53-9.43-2.46-5.47,1.77-9.38,3.27-3.17,30.33,0,0,1.27,8.72,0,16.86Z"/><path d="M1222.24,922.87s-12.29,3.66,0,4.18c0,0,36.86-2.35,47.06-38.95,0,0,0-15.69-5.49,0,0,0-6.8,26.66-41.57,34.77Z"/><path d="M977.88,984.24s6.47-9.41,5.1,1.57c0,0-8.43,21.37,19.61,26.27,0,0,17.11,4.02-.05,5.29,0,0-34.56-4.02-24.66-33.13Z"/><path class="g" d="M1042.9,1062.34s17.91-20.91,34.38-7.58c0,0,2.74-21.31-7.06-21.44,0,0-16.34-1.18-27.32,29.02Z"/><path class="g" d="M951.02,1044.23s16.08-3.14,19.21,12.55c0,0,14.82-12.8,22.9-6.4,0,0,2.59-18.69-16.23-24.18,0,0-18.08-3.63-25.88,18.04Z"/><path class="g" d="M903.57,1041.37s12.16-9.69,18.82-1.85c0,0,8.04-29.41-16.08-30.78l-2.74,32.63Z"/><path class="d" d="M1049.44,1109.38h24.31s5.75-5.08,0-17.89c0,0-3.4-3.66-1.05-16.21,0,0,4.11-10.87-4.44-10.46,0,0-24.31,.9-18.82,44.56Z"/><path class="d" d="M1163.29,1102.73l16.08-2.88s-1.55,29.38-8.76,30.46c0,0-8.1-.26-7.32-27.58Z"/><path class="d" d="M1128,1109.38l22.09-3.9s1.11,36.16-9.8,39.87c0,0-11.76,1.8-12.29-35.96Z"/><path class="d" d="M1094.8,1114.36l19.48-1.44s5.75,35.03-8.89,36.86c0,0-12.42,2.74-10.59-35.42Z"/><path class="d" d="M1051.14,1116.32h27.32s5.23,36.21-10.98,38.04c0,0-16.86,2.09-16.34-38.04Z"/><path class="d" d="M1013.36,1141.68s20.13-2.48,23.53-14.38c0,0-2.22,45.88-23.53,14.38Z"/><path class="d" d="M974.15,1105.47l9.67,1.05s-.13,22.48,14.25,29.8c0,0-2.88,10.06-12.55,11.63,0,0-10.2,5.23-11.37-42.48Z"/><path class="d" d="M936.9,1098.74l28.23,5.1s-.71,35.51-10.78,40c0,0-16.47,4.71-17.45-45.09Z"/><path class="d" d="M910.1,1092.01l18.56,4.71s3.92,39.47-7.06,40.52c0,0-11.76,5.75-11.5-45.23Z"/><path class="d" d="M826.97,1109.38s26.14,16.09,43.4-42.46l.85,64.57s5.88,17.06,14.51,19.41c0,0,22.35,16.86,23.33,28.43,0,0,4.71,4.71,5.69-1.57,0,0-8.43-39.6-7.06-47.25,0,0,7.65,26.47,23.72,8.04,0,0,10.58,35.3,37.45,15.83,0,0,11.76,21.22,33.92,3.77,0,0,15.88,24.9,44.31,1.57,0,0,19.81,20.59,40.39-3.14,0,0,15.1,13.83,34.31-2.2,0,0,21.37,11.26,36.27-10.42,0,0,12.16,5.37,25.49-1.3,0,0-10,38.62-5.88,41.57,0,0,4.9,5.1,10.59-8.63,0,0,20.39-28.63,34.7-37.25,0,0-5.69-108.29,1.11-111.69h17.78s-1.05,43.13,19.35,66.66c0,0,30.32,41.3,0,73.98,0,0-32.6,38.17-89.89,56.73,0,0-34.28,10.72-63.56,41.57,0,0-16.47,23.53-39.47,12.81,0,0-27.97-10.98-34.51-1.83,0,0-20.13,10.2-36.86,.52,0,0-6.8-3.4-9.15-6.8,0,0-19.08-20.39-42.87-34.51,0,0-1.83-1.83-36.34-19.08,0,0-42.61-19.08-83.65-47.32,0,0-11.11-8.5,2.09-60.01Z"/><path class="g" d="M824.58,1119.42s31.77,9.3,46.17-23.83l-.38-28.68s-10.21,46.27-43.4,42.46l-2.39,10.04Z"/><path class="g" d="M909.37,1149.18c1.82-.18,4.03-.54,6.47-1.28,3.02-.92,5.45-2.13,7.27-3.21-1.52-.03-3.22-.28-4.96-.95-7.75-2.98-10.13-11.85-10.47-13.23-.06,2.05-.04,4.23,.08,6.53,.24,4.52,.85,8.6,1.61,12.15Z"/><path class="g" d="M1224.07,1026.65h17.78s.26,9.01,.7,14.46l-21.38,1.36s0-12.82,2.9-15.82Z"/><path class="g" d="M1130.81,1049.04s7.56-1.86,14.53,.77c0,0-.8-31.26,2.63-29.49,0,0,8.51,3.73,10.43,5.93,0,0-4.56-17.93-18.78-24.8,0,0-14.41-4.89-11.39,16.32,0,0,5.14,20.49,2.59,31.27Z"/><path class="d" d="M1130.81,1098.54l17.25-1.96s0-34.31-13.14-35.29c0,0-12.35-1.96-4.12,37.25Z"/><path class="g" d="M1128.54,1085.05l13.46-18.71c-.68-1.22-2.08-3.25-4.55-4.4-.77-.36-1.7-.78-2.88-.68-2.12,.19-3.52,1.96-4.2,2.81-2.42,3.06-3.19,10.95-1.84,20.97Z"/><path class="d" d="M1094.14,1105.47l15.88-.85s9.64,.59,5.36-14.7c0,0-12.17,9.8-20.77,10.39,0,0-.76,2.97-.47,5.16Z"/><path class="d" d="M973.27,1097.37l11.18,1.37s1.47-18.53,7.65-30.39c0,0,3.56-10.52-9.41-1.67,0,0-1.95,.96-4.09,4.97-2.28,4.27-4.77,12-5.32,25.72Z"/><path class="g" d="M984.58,1097.3l-6.58-24.48c.58-1.38,1.72-3.6,3.94-5.62,3.65-3.32,7.82-3.93,9.35-4.08,.55-.13,1.17-.22,1.24,.13,.72,3.68-.11,4-2.64,10.06,0,0-5.98,21.6-5.31,23.99Z"/><path class="d" d="M937.42,1090.57s16.74,5.13,26.4,4.05c0,0,4.84-45.49-13.86-41.43,0,0-1.66,.31-1.18,24.05,0,0-15.29,13.33-11.37,13.33Z"/><path class="g" d="M948.72,1072.47l10.25-16.07s-2.93-5.42-9-3.21c0,0-1.75,.9-1.25,19.28Z"/><path class="d" d="M903.57,1078.94s3.14,8.63,28.23,10.98c0,0-18.67-7.97-12.08-33.13,0,0,6.59-14.98-7.79-4.12,0,0-6.8,3.54-8.37,26.28Z"/><path class="g" d="M913.23,1051.81l5.41,10.37c.5-1.27,4.63-11.89,1.88-13.64-.43-.27-2.12-1.02-7.29,3.27Z"/><path d="M1070.61,797.13s-17.25-112.93,79.99-61.17c0,0,108.77,60.81,100.66,148.96,0,0,0,22.82-34.49,17.39,0,0-38.2-16.92-79.24-17.39,0,0-57.77-3.35-66.92-87.79Z"/><path class="d" d="M1149.97,880.61s24.57-3.14,48.62,9.41c0,0,59.6,23.53,47.06-21.44,0,0-5.72-59.66-93.07-104.57-8.32-4.28-13.33-4.84-13.33-4.84,0,0-31.96-9.66-41.41,17.5-.75,2.14-1.59,4.25-2.52,6.32-.58,1.28-1.25,2.77-1.96,4.33-5.46,12.03-8.04,25.2-7.26,38.39,.21,3.62,.57,7.62,1.13,12.01,0,0,7.84,38.17,62.74,42.87Z"/><path class="g" d="M1086.87,834.69s47.71-120.59,154.77,18.64c-3.92-9.41-9.52-23.32-21.9-37.32-2.08-2.36-3.6-5.23-11.41-12.52-30.03-28.06-46.19-41.73-63.47-45.83-5.47-1.3-13.75-2.52-24.5-1.23-6.43,2.19-13.42,5.8-19.59,11.74-24.58,23.65-14.67,63.59-13.9,66.53Z"/><path class="g" d="M888.94,893.13s4.17-28.29,44.96-54.43c0,0,17.27-7.77,18.83-18.92,0,0,24.74-55.37,63.6-19.53l2.79-25.86s-15.69-18.72-43.13-16.47c0,0-20.94,2.7-31.51,41.74,0,0-8.21,9.96-19.2,16.56,0,0-42.86,30.97-36.33,76.92Z"/><path class="b" d="M764.55,674.65c1.48,3.87,3.99,9.07,8.31,14.31,7.32,8.88,15.91,13.14,20.63,15.05-5.22-7.49-8.43-14.09-10.4-18.77-5.26-12.5-8.56-27.58-8.56-27.58h0s-3.9,6.65-9.98,16.99Z"/><path class="b" d="M1323.63,651.16c-2.46,7.89-5.69,16.59-9.95,25.8-2.95,6.38-6.03,12.19-9.08,17.45,0,0,20.13-16.22,27.56-29.15,0,0-2.56-8.17-8.54-14.09Z"/><path class="b" d="M1339.56,808.58s-5.69-1.52-7.39-11.19c0,0,.39,4.97-2.23-20.13,0,0,.52-12.81-5.49,0,.08,7.27,.16,14.55,.24,21.82,.87-.37,1.73-.74,2.6-1.11,.28,4.97,.57,9.93,.85,14.9,.31,2.82,1.78,5.01,3.54,5.31,1.96,.33,3.66-1.79,4.99-3.45,1.88-2.35,2.59-4.77,2.89-6.16Z"/><path class="b" d="M1327.23,839.44s-15.06,18.07-27.61-3.36c0,0-3.4-34.51-10.98-1.57,0,0-.1,6.8,3.13,7.4,.18-.25,.37-.37,.54-.42,.99-.32,2.53,1.08,3.91,3.44,.54,1.5,1.38,3.29,2.67,5.12,3.38,4.76,7.88,6.92,10.19,7.82,4.37,2.79,9.69,3.34,13.72,1.12,5.8-3.2,8.42-11.88,4.43-19.55Z"/><path class="b" d="M1227.18,988.94c1.84,2.5,3.46,3.17,4.68,3.22,7.84,.32,14.21-23.8,15.01-26.94,0,2.4,.05,4.85,.13,7.35,.14,4.49,.4,8.81,.75,12.96,.48,2.54,3.04,17.03-5.07,23.67-.7,.57-1.5,1.1-2.42,1.57-3.97,1.08-6.46,.18-7.51-.31-5.53-2.59-8.42-11.44-5.59-21.52Z"/><path class="b" d="M1166.58,1059.33s25.07,17.78,18.02-16.86c0,0-37.16-92.22,12.66-104.21-3.91,3.71-9.67,10.18-13.16,19.65-3.97,10.75-3.02,19.94-1.36,34.42,.97,8.49,2.98,20.4,7.48,34.35,1.87,6.84,3.6,15.57,4.03,25.78,.32,7.57-.14,14.32-.89,20-3.43,8.21-12.43,11.98-19.41,9.4-7.89-2.91-12.25-13.6-7.37-22.54Z"/><path class="b" d="M1084.59,1073.16s17.4,8.13,27.2-27.55c0,0,.33-53.16,20.75-51.48-2.09,2.56-4.52,6.16-6.28,10.87-4.4,11.75-1.66,22.4-.36,26.5,.62,2.14,7.62,27.81-8.98,46.69-8.02,9.12-17.92,12.53-22.85,13.83,0,0-23.49,7-9.49-18.85Z"/><path class="b" d="M997.27,1085.96s11.12,75.06,35.96,3.96c2.83,21.13-1.61,38.06-11.34,42.06-1.69,.69-3.85,1.13-6.64,.84,0,0-34.86,1.99-17.98-46.85Z"/><path class="b" d="M944.57,1056.78s-5.8,13.14-16.93,10.98c.53,7.81,2.54,14.01,5.34,14.4,4.22,.58,8.99-12.23,9.23-12.89,1.85-5.07,2.29-9.56,2.37-12.49Z"/><path class="b" d="M825,1080.16s20.14,19.11,35.04-31.44c0,0,11.82-55.11,45.91-44.89,0,0-25.65,5.84-34.21,44.5-1.8,6.62-13.83,49.63-32.86,54-1.77,.41-6.47,1.49-10.15-1.01-4.83-3.27-6.19-11.51-3.73-21.16Z"/><path class="b" d="M752.92,703.08s1.24,3.53,3.99,4.31c0,0,6.99-.39,11.3-8.04-.81,1.77-1.74,3.78-2.8,6-3.63,7.63-4.15,8.12-4.45,8.82-.14,.34-.21,.6-.23,.67-.28,.99-2.39,6.37-4.03,6.15-.17-.02-.41-.11-.68-.47-.5-.77-.99-1.61-1.42-2.54-2.73-5.74-2.3-11.46-1.68-14.92Z"/><path class="b" d="M767.74,832.32s7.3-6.86,7.45-32.79c1.95,3.33,5.5,10.45,5.64,20.08,.11,7.24-1.76,12.94-3.14,16.27-.72,1.56-1.61,2-2.02,2.16-2.19,.8-5.65-1.31-7.93-5.72Z"/><path class="b" d="M773.75,871.02s6.16,16.56,15.05-7.23c0,0,14.38-53.59,17.78,2.35,0,0,.26,4.44-3.14,16.99,0,0-11.88,41.24-.84,48.46-1.35,1.55-11.45,12.84-21.8,10.69-1.24-.26-3.51-.76-5.16-2.65-.85-.97-3.35-4.39,.32-16.18,1.71-5.47,5.05-13.74,12.06-22.81,1.07-2.09,2.65-4.69,4.96-7.34,1.81-2.07,3.62-3.67,5.19-4.88,.59-.91,1.99-3.34,1.91-6.7-.1-4.04-2.26-6.73-2.91-7.48-.14-.11-.76-.57-1.34-.39-.72,.23-1.25,1.42-.79,2.81-.73,7.76-5.03,13.93-10.98,15.82-.76,.24-5.61,1.78-9.2-.68-4.58-3.14-5.78-11.87-1.12-20.78Z"/><path d="M787.76,616.62s-2.77,0,0,2.09c0,0,5.22,2.12,8.23,.65,0,0,2.84-1.04-.65-1.26,0,0-6.47-.89-7.58-1.49Z"/><path d="M786.32,629.31s4.85,9.12,23.87,6.32c0,0-5.1-1.03-6.03-3.14,0,0,3.24-4.07,5.73-4.02l-21.17-.74s-4.52-.83-2.4,1.57Z"/><path d="M796.61,642.5s-4.02-.93-.44,1.67c0,0,12.3,7.5,28.09,3.53,0,0,2.89-1.37-.64-1.08,0,0-22.2-1.1-27.01-4.12Z"/><path d="M808.97,672.4s-8-1.48-2.25,2.65c0,0,19.04,14.16,44.39,7.86,0,0,4.64-2.18-1.02-1.71,0,0-29.55-.75-41.11-8.79Z"/><path d="M794.69,651.32s8.98,10.1,33.69,5.29c0,0,5.69-3.14,.49,2.06,0,0-2.65,1.67-18.68,1.18,0,0,11.81,12.25,37.01,10.2,0,0,7.74,.2,0,2.94,0,0-39.24,6.37-52.51-21.67Z"/><path d="M815.14,691.81l23.23,22.94s30.77,2.77,52.74-25.49c0,0-13.92,11.66-31.86,14.75,0,0,10.42-12.08,6.96-8.77-.45,.43-14.41,3.63-20.98,2.06,0,0,4.22-5.1,8.82-7.16,0,0-33.23,3.43-38.92,1.67Z"/><path d="M857.82,718.57s-3.53,.59,.33,1.5c0,0,11.63,2.22,15.69-6.34,0,0,.98-2.09-1.24-.65-2.22,1.44-3.01,4.51-14.77,5.49Z"/><path d="M1302.26,629.46s-3.24,3.04,.69,1.18c0,0,3.53-1.86,6.37-1.67,0,0,4.61-1.57-.98-1.67,0,0-4.87,.43-6.08,2.16Z"/><path d="M1296.19,639.26s-2.16,.88,0,1.37c2.16,.49,9.61-.88,11.96-4.41,0,0,2.3-2.84-2.09-.39,0,0-6.44,3.73-9.87,3.43Z"/><path d="M1290.7,649.56s-2.74,.17,0,1.6c2.74,1.43,13.47-.23,15.36-3.27,0,0,2.19-4.41-2.32-1.08,0,0-7.45,3.63-13.04,2.74Z"/><path d="M1280.89,658.08s-5.78-2.94-1.47,1.96c0,0,1.57,.69,3.04,.78,0,0-6.67,3.04-9.8,4.8,0,0,8.23-.52,24.51-5.39,0,0,6.22-4.51-1.94-2.55,0,0-7.08,2.84-14.33,.39Z"/><path d="M1250.31,675.44s-3.33,.29,0,1.18c0,0,18.33,1.96,28.92-2.65,0,0,9.71-4.31,18.04-5.98,0,0,4.55-.78-2.04-1.18,0,0-35.61,8.72-44.92,8.63Z"/><path d="M1292.85,677.89s3.33-3.43,2.45,.69c0,0-2.65,27.55-57.84,22.55l11.86-1.96-9.51-7.35,13.04-.59-2.55-3.82s41.32,1.29,42.55-9.51Z"/><path d="M1222.27,708.57s-6.67-.49,0,2.65c0,0,37.84,10.2,44.6-3.53,0,0,2.65-2.16-2.84-.69,0,0-29.8,4.61-41.76,1.57Z"/><path d="M1228.45,716.51s-5.2-3.82-2.06,1.67c0,0,11.37,10.98,18.33,2.84,0,0,1.57-.98-1.86-1.96,0,0-13.33,.49-14.41-2.55Z"/></g></svg>